Coordinates
version=1
nRows=10
nColumns=63
inDegrees=yes

Units are S.I. units (second, meters, Newtons, ...)
If the header above contains a line with 'inDegrees', this indicates whether rotational values are in degrees (yes) or radians (no).

endheader
time	pelvis_tilt	pelvis_list	pelvis_rotation	pelvis_tx	pelvis_ty	pelvis_tz	hip_flexion_r	hip_adduction_r	hip_rotation_r	knee_angle_r	knee_angle_r_beta	ankle_angle_r	subtalar_angle_r	mtp_angle_r	hip_flexion_l	hip_adduction_l	hip_rotation_l	knee_angle_l	knee_angle_l_beta	ankle_angle_l	subtalar_angle_l	mtp_angle_l	L5_S1_Flex_Ext	L5_S1_Lat_Bending	L5_S1_axial_rotation	L4_L5_Flex_Ext	L4_L5_Lat_Bending	L4_L5_axial_rotation	L3_L4_Flex_Ext	L3_L4_Lat_Bending	L3_L4_axial_rotation	L2_L3_Flex_Ext	L2_L3_Lat_Bending	L2_L3_axial_rotation	L1_L2_Flex_Ext	L1_L2_Lat_Bending	L1_L2_axial_rotation	L1_T12_Flex_Ext	L1_T12_Lat_Bending	L1_T12_axial_rotation	Abs_r3	Abs_r2	Abs_r1	Abs_t1	Abs_t2	neck_flexion	neck_bending	neck_rotation	arm_flex_r	arm_add_r	arm_rot_r	elbow_flex_r	pro_sup_r	wrist_flex_r	wrist_dev_r	arm_flex_l	arm_add_l	arm_rot_l	elbow_flex_l	pro_sup_l	wrist_flex_l	wrist_dev_l
      1.27118644	      0.07920205	     -3.11724628	     85.52225949	      0.21028318	      0.92946328	      0.55544685	      5.05013730	     -1.25907201	     -9.63908661	     10.09838264	      0.17625003	     24.98380506	     16.90767678	      0.00000000	      5.00764897	     -0.00121800	      6.46991333	      6.26110868	      0.10927696	     19.16179809	    -14.93187228	      0.00000000	      0.05870131	      0.12956107	      1.31667099	      0.10901420	      0.17231622	      1.39896292	      0.09644038	      0.31501478	      1.39896292	      0.06708972	      0.31501478	      1.15208711	      0.05451003	      0.26420093	      1.06979518	      0.03354193	      0.20069009	      0.98750324	      0.41929756	      1.46562070	      7.32292902	      0.00000000	      0.00000000	     19.22436269	     -1.15725319	     -7.22432720	      6.61236219	     -9.90940746	     38.41840377	     45.99721745	     63.99352353	      6.39374913	     12.36251835	     13.33349890	     -7.05021133	     51.44866799	     38.77085389	     57.46143986	      5.38958932	      0.28254584
      1.28813559	      0.31303633	     -3.19846468	     85.82906789	      0.20992895	      0.92916558	      0.55531278	      5.04158877	     -0.98888771	     -9.64877209	      9.96411245	      0.17390657	     25.28830610	     16.79832985	      0.00000000	      5.03860796	     -0.20936833	      7.33068024	      6.16311995	      0.10756674	     19.10036373	    -15.38312068	      0.00000000	      0.06497427	      0.15536797	      1.33274374	      0.12066372	      0.20663940	      1.41604022	      0.10674623	      0.37776169	      1.41604022	      0.07425909	      0.37776169	      1.16615077	      0.06033511	      0.31682637	      1.08285429	      0.03712630	      0.24066499	      0.99955781	      0.46410471	      1.75755359	      7.41232086	      0.00000000	      0.00000000	     19.43870096	     -1.31669322	     -7.55181976	      6.45287306	     -9.84919678	     37.40333153	     45.92878319	     66.05882577	      5.88860316	     11.16276491	     13.41315509	     -6.98234490	     51.92163114	     38.78780710	     56.64752312	      5.14199311	      1.27936672
      1.30508475	      0.45103151	     -3.22559505	     85.85327545	      0.20989571	      0.92888198	      0.55509745	      5.00576352	     -0.80095729	     -9.32836408	      9.83318506	      0.17162146	     25.58387306	     16.62713948	      0.00000000	      4.97335216	     -0.34029586	      7.78498441	      6.03649153	      0.10535665	     19.07703545	    -15.64546069	      0.00000000	      0.06710186	      0.16957820	      1.40059635	      0.12461487	      0.22553901	      1.48813362	      0.11024165	      0.41231245	      1.48813362	      0.07669072	      0.41231245	      1.22552180	      0.06231079	      0.34580387	      1.13798453	      0.03834200	      0.26267664	      1.05044726	      0.47930190	      1.91830256	      7.78969669	      0.00000000	      0.00000000	     19.58069362	     -1.45230900	     -7.94281126	      6.31614296	     -9.74504816	     36.32777746	     45.88648423	     67.34419577	      5.19494993	     10.11328685	     13.63715400	     -6.91237375	     52.70168856	     38.62554044	     56.51407276	      4.83138551	      1.14072026
      1.32203390	      0.46020024	     -3.27220174	     85.87585233	      0.20951677	      0.92845745	      0.55520909	      5.03697200	     -0.80025097	     -9.26945620	      9.76111555	      0.17036361	     25.80236254	     16.64664917	      0.00000000	      5.00532505	     -0.32103106	      7.88690286	      5.99622427	      0.10465386	     19.12851547	    -15.61009294	      0.00000000	      0.07142634	      0.17599002	      1.41177057	      0.13264586	      0.23406673	      1.50000623	      0.11734634	      0.42790214	      1.50000623	      0.08163317	      0.42790214	      1.23529925	      0.06632650	      0.35887885	      1.14706359	      0.04081301	      0.27260854	      1.05882793	      0.51019121	      1.99083432	      7.85184438	      0.00000000	      0.00000000	     19.57503317	     -1.45570975	     -7.95397220	      6.65288818	     -9.79911790	     36.08157357	     45.79311407	     67.34557343	      5.05216075	     10.00176680	     13.72184730	     -6.87692905	     52.65559976	     38.69672474	     56.52051125	      4.80246086	      1.05996807
      1.33898305	      0.35336209	     -3.27813739	     86.02522778	      0.20944006	      0.92803011	      0.55515267	      5.01504465	     -0.90369933	     -9.21317769	      9.72581919	      0.16974757	     25.99977650	     16.52252274	      0.00000000	      5.00688671	     -0.19714236	      8.26880769	      5.96688156	      0.10414173	     19.15295107	    -15.71162364	      0.00000000	      0.06849292	      0.15817940	      1.42995582	      0.12719820	      0.21037861	      1.51932806	      0.11252702	      0.38459740	      1.51932806	      0.07828056	      0.38459740	      1.25121134	      0.06360253	      0.32255944	      1.16183910	      0.03913685	      0.24501990	      1.07246686	      0.48923808	      1.78935705	      7.95298528	      0.00000000	      0.00000000	     19.85767356	     -1.66933428	     -8.49163210	      6.67396075	     -9.46954055	     35.19540409	     45.54033227	     68.19643159	      3.73641861	      8.77418878	     13.70177687	     -6.82194307	     52.38343958	     38.79988676	     56.89354275	      4.00968295	     -0.47326285
      1.35593220	      0.31504413	     -3.33822148	     86.07396467	      0.20900069	      0.92738512	      0.55542738	      5.06999399	     -0.97037622	     -9.27539160	      9.69136313	      0.16914620	     26.00098448	     16.47760095	      0.00000000	      5.07345027	     -0.12201539	      8.33852554	      5.92914692	      0.10348314	     19.24798675	    -15.72366000	      0.00000000	      0.07578069	      0.16101814	      1.45278197	      0.14073232	      0.21415413	      1.54358085	      0.12450010	      0.39149951	      1.54358085	      0.08660975	      0.39149951	      1.27118423	      0.07036995	      0.32834819	      1.18038535	      0.04330109	      0.24941710	      1.08958648	      0.54129391	      1.82146942	      8.07993750	      0.00000000	      0.00000000	     19.86357761	     -1.71168572	     -8.56042851	      7.03239155	     -9.54838196	     35.06438966	     45.26411857	     68.29106965	      3.58612637	      8.79832743	     13.92533696	     -6.70470601	     52.23940534	     38.92183157	     56.89674353	      3.95217557	     -0.64609036
      1.37288136	      0.08552770	     -3.46418855	     86.23786735	      0.20871393	      0.92661630	      0.55619998	      5.31985096	     -1.25675199	     -9.65913356	      9.90305498	      0.17284092	     25.97176186	     16.44737557	      0.00000000	      5.40249916	      0.14593144	      8.59181293	      6.18055899	      0.10787110	     19.33121313	    -15.92203378	      0.00000000	      0.07420206	      0.12520749	      1.41247694	      0.13780064	      0.16652596	      1.50075675	      0.12190656	      0.30442949	      1.50075675	      0.08480553	      0.30442949	      1.23591733	      0.06890403	      0.25532311	      1.14763752	      0.04239905	      0.19394640	      1.05935771	      0.53001786	      1.41637214	      7.85577301	      0.00000000	      0.00000000	     20.19156731	     -2.33637569	     -9.86609258	      7.69860337	     -9.28083264	     35.25841310	     44.57275543	     69.75577204	      2.61151296	      8.89459047	     13.73797902	     -6.52313869	     50.89679561	     38.90808505	     56.94142132	      3.46155299	     -2.21218423
      1.38983051	      0.02149124	     -3.57433746	     86.26488938	      0.20862977	      0.92582859	      0.55656747	      5.44046691	     -1.33631723	     -9.92020355	      9.92519779	      0.17322738	     25.77046601	     16.34089477	      0.00000000	      5.54998909	      0.21493697	      8.67840989	      6.17984455	      0.10785863	     19.49876132	    -15.96304157	      0.00000000	      0.08440047	      0.11694365	      1.43644484	      0.15674011	      0.15553505	      1.52622264	      0.13866153	      0.28433678	      1.52622264	      0.09646129	      0.28433678	      1.25688923	      0.07837427	      0.23847149	      1.16711143	      0.04822643	      0.18114571	      1.07733363	      0.60286409	      1.32288993	      7.98907524	      0.00000000	      0.00000000	     20.40009305	     -2.43230573	    -10.10519925	      8.18834802	     -9.29743948	     35.17883836	     43.97678080	     70.05376322	      2.29358315	      9.08586148	     13.97737918	     -6.25440553	     50.54859803	     38.67611803	     56.93553699	      3.42134923	     -2.18902670
      1.40677966	     -0.15192869	     -3.74445895	     86.55877086	      0.20830103	      0.92490496	      0.55699771	      5.66196375	     -1.58654835	    -10.48702873	     10.09293836	      0.17615501	     25.86018777	     16.57871282	      0.00000000	      5.91396609	      0.43628058	      8.91568802	      6.44137234	      0.11242316	     19.60059459	    -16.07309618	      0.00000000	      0.09367304	      0.08031507	      1.37550032	      0.17396021	      0.10681905	      1.46146909	      0.15389545	      0.19527807	      1.46146909	      0.10705892	      0.19527807	      1.20356278	      0.08698479	      0.16377850	      1.11759401	      0.05352478	      0.12440805	      1.03162524	      0.66909719	      0.90854018	      7.65012015	      0.00000000	      0.00000000	     20.62231546	     -2.86143674	    -11.62193107	      8.47686810	     -9.14337686	     33.54577824	     43.99552716	     76.23726173	      1.92754150	      9.19496311	     13.50186867	     -5.75097930	     46.41831753	     38.58613219	     61.95030301	      4.92923959	     -0.51934811
      1.42372881	     -0.32640891	     -3.77708600	     86.57879581	      0.20867463	      0.92445798	      0.55737751	      5.73433962	     -1.76375996	    -10.45477486	     10.13694029	      0.17692298	     25.71600817	     16.52009153	      0.00000000	      6.00686164	      0.60305280	      8.86006000	      6.48928837	      0.11325945	     19.64640017	    -16.10438475	      0.00000000	      0.09155776	      0.04412625	      1.33927998	      0.17003192	      0.05868792	      1.42298497	      0.15042025	      0.10728857	      1.42298497	      0.10464137	      0.10728857	      1.17186998	      0.08502054	      0.08998226	      1.08816498	      0.05231611	      0.06835157	      1.00445998	      0.65398794	      0.49916501	      7.44867344	      0.00000000	      0.00000000	     20.70174136	     -2.66247987	    -12.03005470	      8.97758924	     -9.49616726	     33.01072672	     44.50538677	     76.58462242	      1.16807477	      9.13889154	     13.99433096	     -5.82805858	     46.06780118	     38.27698133	     62.58813422	      4.65055815	     -0.63669416
